<svg width="341" height="69" viewBox="0 0 341 69" fill="none" xmlns="http://www.w3.org/2000/svg">
<rect width="341" height="69" rx="8.75" fill="white"/>
<path d="M12.6299 29.5H10.3184L10.9072 26.4502H8.99121L9.41309 24.2266H11.3379L11.7861 21.915H9.81738L10.2393 19.709H12.2168L12.7793 16.8174H15.0908L14.5283 19.709H16.5059L17.0684 16.8174H19.3887L18.8262 19.709H20.8213L20.4082 21.915H18.4043L17.9561 24.2266H19.9951L19.5732 26.4502H17.5254L16.9277 29.5H14.6074L15.1963 26.4502H13.2188L12.6299 29.5ZM13.4736 24.3672H15.7412L16.251 21.7744H13.9834L13.4736 24.3672ZM24.2364 29.5V19.6475H24.1748L21.002 21.7744V19.0146L24.2276 16.8174H27.4444V29.5H24.2364ZM35.5929 29.5V19.4102H32.0948V16.8174H42.3077V19.4102H38.8097V29.5H35.5929ZM45.6086 29.7021C42.5763 29.7021 40.713 27.874 40.713 24.7188V24.7012C40.713 21.5986 42.6379 19.7266 45.6086 19.7266C48.588 19.7266 50.5041 21.5811 50.5041 24.7012V24.7188C50.5041 27.8828 48.6232 29.7021 45.6086 29.7021ZM45.6173 27.3379C46.6808 27.3379 47.3488 26.3975 47.3488 24.7188V24.7012C47.3488 23.0488 46.6632 22.0908 45.6086 22.0908C44.5539 22.0908 43.8771 23.0488 43.8771 24.7012V24.7188C43.8771 26.4062 44.5363 27.3379 45.6173 27.3379ZM55.7736 29.7021C52.7414 29.7021 50.8781 27.874 50.8781 24.7188V24.7012C50.8781 21.5986 52.8029 19.7266 55.7736 19.7266C58.7531 19.7266 60.6691 21.5811 60.6691 24.7012V24.7188C60.6691 27.8828 58.7883 29.7021 55.7736 29.7021ZM55.7824 27.3379C56.8459 27.3379 57.5139 26.3975 57.5139 24.7188V24.7012C57.5139 23.0488 56.8283 22.0908 55.7736 22.0908C54.7189 22.0908 54.0422 23.0488 54.0422 24.7012V24.7188C54.0422 26.4062 54.7014 27.3379 55.7824 27.3379ZM61.386 29.5V16.8174H64.5061V29.5H61.386ZM72.2201 29.5V22.2139H70.9457V19.9287H72.2201V19.375C72.2201 17.4854 73.1341 16.6152 75.639 16.6152C76.1839 16.6152 76.7904 16.6768 77.1332 16.7471V18.6807C76.9574 18.6455 76.7113 18.6367 76.474 18.6367C75.6127 18.6367 75.2523 18.9619 75.2523 19.5156V19.9287H77.1156V22.2139H75.3402V29.5H72.2201ZM81.8666 29.7021C78.8344 29.7021 76.9711 27.874 76.9711 24.7188V24.7012C76.9711 21.5986 78.8959 19.7266 81.8666 19.7266C84.8461 19.7266 86.7621 21.5811 86.7621 24.7012V24.7188C86.7621 27.8828 84.8812 29.7021 81.8666 29.7021ZM81.8754 27.3379C82.9389 27.3379 83.6068 26.3975 83.6068 24.7188V24.7012C83.6068 23.0488 82.9213 22.0908 81.8666 22.0908C80.8119 22.0908 80.1352 23.0488 80.1352 24.7012V24.7188C80.1352 26.4062 80.7943 27.3379 81.8754 27.3379ZM87.4262 29.5V19.9287H90.5463V21.625H90.6078C90.8715 20.4121 91.6274 19.7266 92.7524 19.7266C93.0512 19.7266 93.3237 19.7705 93.561 19.8496V22.5127C93.2973 22.4072 92.937 22.3369 92.5678 22.3369C91.2582 22.3369 90.5463 23.0576 90.5463 24.4199V29.5H87.4262ZM100.084 29.5V19.4102H96.5855V16.8174H106.798V19.4102H103.3V29.5H100.084ZM108.245 29.6318C106.32 29.6318 105.01 28.4102 105.01 26.7402V26.7314C105.01 24.9297 106.399 23.9189 108.869 23.752L111.048 23.6113V23.1367C111.048 22.4424 110.6 22.0117 109.73 22.0117C108.895 22.0117 108.403 22.3984 108.297 22.8906L108.28 22.9785H105.476L105.485 22.8643C105.634 21.001 107.225 19.7266 109.888 19.7266C112.463 19.7266 114.16 21.0273 114.16 22.9697V29.5H111.048V28.1465H110.987C110.442 29.0869 109.493 29.6318 108.245 29.6318ZM108.069 26.5381C108.069 27.1357 108.57 27.4785 109.335 27.4785C110.336 27.4785 111.048 26.8809 111.048 26.0723V25.4307L109.37 25.5449C108.5 25.5977 108.069 25.958 108.069 26.5293V26.5381ZM116.696 18.9004C115.799 18.9004 115.105 18.1973 115.105 17.3623C115.105 16.5273 115.799 15.833 116.696 15.833C117.601 15.833 118.287 16.5273 118.287 17.3623C118.287 18.1973 117.601 18.9004 116.696 18.9004ZM115.14 29.5V19.9287H118.252V29.5H115.14ZM119.285 29.5V16.8174H122.405V29.5H119.285ZM125.275 29.5L122.788 19.9287H125.934L127.156 26.6875H127.217L128.676 19.9287H131.656L133.132 26.6875H133.194L134.407 19.9287H137.483L135.013 29.5H131.656L130.135 23.0576H130.074L128.58 29.5H125.275ZM139.404 18.9004C138.508 18.9004 137.813 18.1973 137.813 17.3623C137.813 16.5273 138.508 15.833 139.404 15.833C140.309 15.833 140.995 16.5273 140.995 17.3623C140.995 18.1973 140.309 18.9004 139.404 18.9004ZM137.848 29.5V19.9287H140.96V29.5H137.848ZM141.94 29.5V19.9287H145.06V21.6162H145.122C145.596 20.4121 146.581 19.7266 148.031 19.7266C150.132 19.7266 151.318 21.0713 151.318 23.3389V29.5H148.207V24.0068C148.207 22.9082 147.688 22.2666 146.669 22.2666C145.676 22.2666 145.06 23.0049 145.06 24.0684V29.5H141.94ZM155.77 29.7021C153.38 29.7021 151.956 27.8652 151.956 24.7188V24.71C151.956 21.5371 153.362 19.7266 155.77 19.7266C157.141 19.7266 158.187 20.4385 158.671 21.625H158.732V16.8174H161.844V29.5H158.732V27.8652H158.671C158.196 29.0078 157.15 29.7021 155.77 29.7021ZM156.922 27.1709C158.012 27.1709 158.732 26.2393 158.732 24.7188V24.71C158.732 23.1895 158.003 22.2666 156.922 22.2666C155.823 22.2666 155.12 23.1807 155.12 24.71V24.7188C155.12 26.2305 155.823 27.1709 156.922 27.1709ZM166.002 29.5V16.8174H171.152C174.975 16.8174 177.234 19.0322 177.234 23.0664V23.084C177.234 27.1357 174.975 29.5 171.152 29.5H166.002ZM169.227 26.8984H170.73C172.831 26.8984 173.956 25.624 173.956 23.0928V23.0752C173.956 20.7021 172.761 19.4189 170.73 19.4189H169.227V26.8984ZM182.618 29.7021C179.595 29.7021 177.758 27.8125 177.758 24.7188V24.71C177.758 21.6338 179.603 19.7266 182.513 19.7266C185.404 19.7266 187.241 21.6162 187.241 24.5166V25.4307H180.808C180.843 26.7227 181.546 27.4873 182.68 27.4873C183.682 27.4873 184.226 26.916 184.367 26.5205L184.376 26.4766H187.188L187.162 26.582C186.872 27.9092 185.668 29.7021 182.618 29.7021ZM182.583 21.9414C181.669 21.9414 181.01 22.5391 180.851 23.5938H184.306C184.147 22.5215 183.497 21.9414 182.583 21.9414ZM189.997 29.5L186.798 19.9287H190.146L191.816 26.8896H191.878L193.513 19.9287H196.773L193.601 29.5H189.997ZM201.094 29.7021C198.246 29.7021 196.717 28.4453 196.506 26.582L196.497 26.5029H199.521L199.538 26.5732C199.688 27.2236 200.18 27.6016 201.094 27.6016C201.92 27.6016 202.421 27.3027 202.421 26.8105V26.8018C202.421 26.3711 202.113 26.1338 201.261 25.958L199.573 25.624C197.701 25.2637 196.726 24.2881 196.726 22.8291V22.8203C196.726 20.9131 198.36 19.7266 200.979 19.7266C203.748 19.7266 205.216 21.1416 205.242 22.8555L205.251 22.9258H202.403L202.395 22.8555C202.324 22.293 201.841 21.8271 200.979 21.8271C200.215 21.8271 199.723 22.1436 199.723 22.6445V22.6533C199.723 23.0664 200.013 23.3125 200.918 23.4971L202.605 23.8311C204.636 24.2354 205.515 25.0264 205.515 26.459V26.4678C205.515 28.4453 203.722 29.7021 201.094 29.7021Z" fill="white"/>
<path d="M13.2188 51.5V40.7246H9.42188V38.8174H19.2656V40.7246H15.4775V51.5H13.2188ZM20.5801 51.6582C18.7168 51.6582 17.46 50.5068 17.46 48.8457V48.8281C17.46 47.1758 18.7432 46.1826 21.002 46.042L23.4366 45.8926V45.251C23.4366 44.3105 22.8213 43.7393 21.7139 43.7393C20.6768 43.7393 20.044 44.2227 19.9034 44.9082L19.8858 44.9873H17.8555L17.8643 44.8818C17.9961 43.2295 19.4288 41.9902 21.793 41.9902C24.1221 41.9902 25.625 43.2207 25.625 45.0928V51.5H23.4366V50.0674H23.3838C22.8477 51.043 21.8106 51.6582 20.5801 51.6582ZM19.6397 48.7578C19.6397 49.5225 20.2725 49.9883 21.2305 49.9883C22.4873 49.9883 23.4366 49.1533 23.4366 48.0459V47.3428L21.3096 47.4746C20.2286 47.5449 19.6397 48.0107 19.6397 48.749V48.7578ZM28.0118 40.8477C27.3263 40.8477 26.7901 40.3027 26.7901 39.6523C26.7901 38.9844 27.3263 38.4482 28.0118 38.4482C28.6973 38.4482 29.2247 38.9844 29.2247 39.6523C29.2247 40.3027 28.6973 40.8477 28.0118 40.8477ZM26.9132 51.5V42.1836H29.1016V51.5H26.9132ZM30.4864 51.5V38.8174H32.6749V51.5H30.4864ZM35.8175 51.5L33.2951 42.1836H35.4923L37.0656 49.3379H37.1095L38.9289 42.1836H41.0295L42.8488 49.3379H42.9015L44.4748 42.1836H46.6369L44.1144 51.5H41.8117L39.9748 44.6885H39.9308L38.1027 51.5H35.8175ZM48.3469 40.8477C47.6613 40.8477 47.1252 40.3027 47.1252 39.6523C47.1252 38.9844 47.6613 38.4482 48.3469 38.4482C49.0324 38.4482 49.5598 38.9844 49.5598 39.6523C49.5598 40.3027 49.0324 40.8477 48.3469 40.8477ZM47.2482 51.5V42.1836H49.4367V51.5H47.2482ZM50.76 51.5V42.1836H52.9485V43.6426H52.9924C53.4758 42.6406 54.425 41.9902 55.8401 41.9902C57.8879 41.9902 59.0569 43.3086 59.0569 45.4707V51.5H56.8684V45.9102C56.8684 44.583 56.2532 43.8359 55.0051 43.8359C53.7483 43.8359 52.9485 44.75 52.9485 46.0947V51.5H50.76ZM63.7376 51.6846C61.3821 51.6846 59.888 49.8389 59.888 46.8418V46.833C59.888 43.8271 61.3909 41.9902 63.7288 41.9902C65.0471 41.9902 66.1106 42.667 66.638 43.7832H66.6907V38.8174H68.8792V51.5H66.6907V49.918H66.638C66.1106 51.0166 65.0823 51.6846 63.7376 51.6846ZM64.3968 49.8389C65.7503 49.8389 66.6907 48.6699 66.6907 46.8418V46.833C66.6907 45.0137 65.7415 43.8359 64.3968 43.8359C62.9993 43.8359 62.1204 44.9785 62.1204 46.833V46.8418C62.1204 48.6963 62.9905 49.8389 64.3968 49.8389ZM77.3353 51.6846C74.5404 51.6846 72.8529 49.8301 72.8529 46.8682V46.8594C72.8529 43.9238 74.5668 41.9902 77.2298 41.9902C79.8929 41.9902 81.5453 43.8623 81.5453 46.6748V47.3779H75.0238C75.0589 49.0127 75.9554 49.9795 77.3793 49.9795C78.4691 49.9795 79.181 49.3994 79.392 48.7754L79.4095 48.7139H81.4574L81.431 48.8105C81.141 50.2432 79.7699 51.6846 77.3353 51.6846ZM77.2562 43.7041C76.0961 43.7041 75.2259 44.4863 75.0502 45.9189H79.4183C79.2601 44.4424 78.4164 43.7041 77.2562 43.7041ZM85.8832 51.6846C83.5277 51.6846 82.0336 49.8389 82.0336 46.8418V46.833C82.0336 43.8271 83.5365 41.9902 85.8744 41.9902C87.1928 41.9902 88.2562 42.667 88.7836 43.7832H88.8363V38.8174H91.0248V51.5H88.8363V49.918H88.7836C88.2562 51.0166 87.2279 51.6846 85.8832 51.6846ZM86.5424 49.8389C87.8959 49.8389 88.8363 48.6699 88.8363 46.8418V46.833C88.8363 45.0137 87.8871 43.8359 86.5424 43.8359C85.1449 43.8359 84.266 44.9785 84.266 46.833V46.8418C84.266 48.6963 85.1361 49.8389 86.5424 49.8389ZM93.4819 40.8477C92.7963 40.8477 92.2602 40.3027 92.2602 39.6523C92.2602 38.9844 92.7963 38.4482 93.4819 38.4482C94.1674 38.4482 94.6948 38.9844 94.6948 39.6523C94.6948 40.3027 94.1674 40.8477 93.4819 40.8477ZM92.3832 51.5V42.1836H94.5717V51.5H92.3832ZM99.3579 51.6846C97.4067 51.6846 96.4839 50.8936 96.4839 48.9775V43.8711H95.1655V42.1836H96.4839V39.8193H98.7075V42.1836H100.439V43.8711H98.7075V48.793C98.7075 49.707 99.1118 49.9971 99.9116 49.9971C100.123 49.9971 100.29 49.9707 100.439 49.9619V51.6055C100.184 51.6406 99.7973 51.6846 99.3579 51.6846ZM105.348 51.6846C102.606 51.6846 100.839 49.8564 100.839 46.8418V46.8242C100.839 43.8359 102.632 41.9902 105.339 41.9902C108.055 41.9902 109.857 43.8184 109.857 46.8242V46.8418C109.857 49.8652 108.082 51.6846 105.348 51.6846ZM105.357 49.918C106.737 49.918 107.625 48.793 107.625 46.8418V46.8242C107.625 44.8818 106.728 43.7656 105.339 43.7656C103.977 43.7656 103.072 44.8906 103.072 46.8242V46.8418C103.072 48.8018 103.959 49.918 105.357 49.918ZM110.723 51.5V42.1836H112.912V43.792H112.956C113.246 42.667 114.019 41.9902 115.091 41.9902C115.364 41.9902 115.619 42.0342 115.786 42.0781V44.0557C115.601 43.9854 115.267 43.9326 114.898 43.9326C113.659 43.9326 112.912 44.7148 112.912 46.0947V51.5H110.723ZM120.594 40.8477C119.909 40.8477 119.373 40.3027 119.373 39.6523C119.373 38.9844 119.909 38.4482 120.594 38.4482C121.28 38.4482 121.807 38.9844 121.807 39.6523C121.807 40.3027 121.28 40.8477 120.594 40.8477ZM119.496 51.5V42.1836H121.684V51.5H119.496ZM123.007 51.5V42.1836H125.196V43.6426H125.24C125.723 42.6406 126.673 41.9902 128.088 41.9902C130.135 41.9902 131.304 43.3086 131.304 45.4707V51.5H129.116V45.9102C129.116 44.583 128.501 43.8359 127.253 43.8359C125.996 43.8359 125.196 44.75 125.196 46.0947V51.5H123.007ZM140.789 51.6846C139.444 51.6846 138.416 51.0166 137.888 49.918H137.836V51.5H135.647V38.8174H137.836V43.7832H137.888C138.416 42.667 139.479 41.9902 140.798 41.9902C143.136 41.9902 144.638 43.8271 144.638 46.833V46.8418C144.638 49.8389 143.144 51.6846 140.789 51.6846ZM140.13 49.8389C141.536 49.8389 142.406 48.6963 142.406 46.8418V46.833C142.406 44.9785 141.527 43.8359 140.13 43.8359C138.785 43.8359 137.836 45.0137 137.836 46.833V46.8418C137.836 48.6699 138.776 49.8389 140.13 49.8389ZM145.505 51.5V42.1836H147.693V43.792H147.737C148.027 42.667 148.801 41.9902 149.873 41.9902C150.145 41.9902 150.4 42.0342 150.567 42.0781V44.0557C150.383 43.9854 150.049 43.9326 149.679 43.9326C148.44 43.9326 147.693 44.7148 147.693 46.0947V51.5H145.505ZM154.923 51.6846C152.181 51.6846 150.414 49.8564 150.414 46.8418V46.8242C150.414 43.8359 152.207 41.9902 154.914 41.9902C157.63 41.9902 159.431 43.8184 159.431 46.8242V46.8418C159.431 49.8652 157.656 51.6846 154.923 51.6846ZM154.931 49.918C156.311 49.918 157.199 48.793 157.199 46.8418V46.8242C157.199 44.8818 156.303 43.7656 154.914 43.7656C153.552 43.7656 152.646 44.8906 152.646 46.8242V46.8418C152.646 48.8018 153.534 49.918 154.931 49.918ZM162.064 51.5L159.542 42.1836H161.739L163.312 49.3379H163.356L165.176 42.1836H167.276L169.096 49.3379H169.148L170.722 42.1836H172.884L170.361 51.5H168.058L166.222 44.6885H166.178L164.349 51.5H162.064ZM177.037 51.6846C174.594 51.6846 173.196 50.5244 173.003 48.793L172.994 48.7139H175.147L175.165 48.793C175.332 49.5928 175.938 50.0674 177.046 50.0674C178.109 50.0674 178.751 49.6367 178.751 48.9512V48.9424C178.751 48.3799 178.426 48.0635 177.459 47.8438L175.912 47.501C174.128 47.1055 173.231 46.2354 173.231 44.8555V44.8467C173.231 43.1416 174.717 41.9902 176.967 41.9902C179.287 41.9902 180.641 43.2646 180.72 44.873L180.728 44.9697H178.689L178.681 44.8994C178.584 44.1523 177.986 43.6074 176.967 43.6074C176 43.6074 175.393 44.0557 175.393 44.7412V44.75C175.393 45.2861 175.754 45.6377 176.721 45.8574L178.276 46.2002C180.201 46.6309 180.948 47.3867 180.948 48.7402V48.749C180.948 50.5068 179.322 51.6846 177.037 51.6846ZM185.901 51.6846C183.106 51.6846 181.419 49.8301 181.419 46.8682V46.8594C181.419 43.9238 183.133 41.9902 185.796 41.9902C188.459 41.9902 190.111 43.8623 190.111 46.6748V47.3779H183.59C183.625 49.0127 184.521 49.9795 185.945 49.9795C187.035 49.9795 187.747 49.3994 187.958 48.7754L187.976 48.7139H190.023L189.997 48.8105C189.707 50.2432 188.336 51.6846 185.901 51.6846ZM185.822 43.7041C184.662 43.7041 183.792 44.4863 183.616 45.9189H187.984C187.826 44.4424 186.982 43.7041 185.822 43.7041ZM190.986 51.5V42.1836H193.175V43.792H193.219C193.509 42.667 194.282 41.9902 195.354 41.9902C195.627 41.9902 195.882 42.0342 196.049 42.0781V44.0557C195.864 43.9854 195.53 43.9326 195.161 43.9326C193.922 43.9326 193.175 44.7148 193.175 46.0947V51.5H190.986Z" fill="white" fill-opacity="0.5"/>
<rect x="239" y="16.5" width="93" height="36" rx="6" fill="#0CA5E9"/>
<path d="M266.047 39.5V31.7178H263.305V30.3403H270.414V31.7178H267.678V39.5H266.047ZM269.91 39.5V32.7715H271.49V33.9331H271.522C271.732 33.1206 272.29 32.6318 273.065 32.6318C273.261 32.6318 273.445 32.6636 273.566 32.6953V34.1235C273.433 34.0728 273.192 34.0347 272.925 34.0347C272.03 34.0347 271.49 34.5996 271.49 35.5962V39.5H269.91ZM275.106 41.7344C274.801 41.7344 274.484 41.6963 274.293 41.6646V40.4585C274.414 40.4839 274.598 40.5156 274.82 40.5156C275.423 40.5156 275.76 40.3442 275.963 39.7793L276.058 39.5063L273.639 32.7715H275.366L276.94 38.1543H276.985L278.565 32.7715H280.228L277.81 39.7285C277.296 41.2075 276.509 41.7344 275.106 41.7344ZM282.94 39.5V30.3403H284.412L288.875 36.7578H288.913V30.3403H290.538V39.5H289.078L284.603 33.0571H284.571V39.5H282.94ZM294.585 39.6333C292.604 39.6333 291.328 38.313 291.328 36.1357V36.123C291.328 33.9648 292.623 32.6318 294.578 32.6318C296.54 32.6318 297.841 33.9521 297.841 36.123V36.1357C297.841 38.3193 296.559 39.6333 294.585 39.6333ZM294.591 38.3574C295.588 38.3574 296.229 37.5449 296.229 36.1357V36.123C296.229 34.7202 295.581 33.9141 294.578 33.9141C293.594 33.9141 292.941 34.7266 292.941 36.123V36.1357C292.941 37.5513 293.582 38.3574 294.591 38.3574ZM299.743 39.5L297.921 32.7715H299.508L300.644 37.9385H300.676L301.99 32.7715H303.507L304.821 37.9385H304.859L305.995 32.7715H307.556L305.735 39.5H304.072L302.745 34.5806H302.713L301.393 39.5H299.743Z" fill="white"/>
</svg>
