<svg width="32" height="20" viewBox="0 0 32 20" fill="none" xmlns="http://www.w3.org/2000/svg">
<style>
    :root {
      --text-fill: black;
    }

    @media (prefers-color-scheme: dark) {
      :root {
        --text-fill: white;
      }
    }
  </style>
<path fill-rule="evenodd" clip-rule="evenodd" d="M16 0.129639C11.7333 0.129639 9.06667 2.26297 8 6.52964C9.6 4.39631 11.4667 3.59631 13.6 4.12964C14.8172 4.43364 15.6871 5.31719 16.6501 6.29438C18.2187 7.88668 20.0344 9.72964 24 9.72964C28.2667 9.72964 30.9333 7.59631 32 3.32964C30.4 5.46297 28.5333 6.26297 26.4 5.72964C25.1828 5.42564 24.3129 4.54208 23.3499 3.5649C21.7813 1.9726 19.9656 0.129639 16 0.129639ZM8 9.72964C3.73333 9.72964 1.06667 11.863 0 16.1296C1.6 13.9963 3.46667 13.1963 5.6 13.7296C6.81718 14.0342 7.68711 14.9172 8.65007 15.8944C10.2187 17.4867 12.0344 19.3296 16 19.3296C20.2667 19.3296 22.9333 17.1963 24 12.9296C22.4 15.063 20.5333 15.863 18.4 15.3296C17.1828 15.0256 16.3129 14.1421 15.3499 13.1649C13.7813 11.5726 11.9656 9.72964 8 9.72964Z" fill="#38BDF8"/>
<path fill-rule="evenodd" clip-rule="evenodd" d="M20.5128 19.3889C17.9316 19.3889 16 17.4455 16 14.9445C16 12.4265 17.9316 10.5 20.5128 10.5C22.188 10.5 23.641 11.3619 24.3248 12.68L22.735 13.5925C22.359 12.7983 21.5213 12.2913 20.4957 12.2913C18.9914 12.2913 17.8461 13.4235 17.8461 14.9445C17.8461 16.4654 18.9914 17.5976 20.4957 17.5976C21.5213 17.5976 22.359 17.0737 22.7692 16.2964L24.359 17.192C23.641 18.527 22.188 19.3889 20.5128 19.3889ZM27.4017 13.0518C27.4017 14.5896 32 13.6601 32 16.7864C32 18.4763 30.5128 19.3889 28.6666 19.3889C26.9572 19.3889 25.7265 18.6284 25.1795 17.4117L26.7692 16.4992C27.0427 17.2596 27.7265 17.7159 28.6666 17.7159C29.4872 17.7159 30.1196 17.4455 30.1196 16.7695C30.1196 15.2655 25.5213 16.1105 25.5213 13.0856C25.5213 11.4971 26.906 10.5 28.6496 10.5C30.0513 10.5 31.2137 11.1422 31.812 12.2575L30.2564 13.1194C29.9487 12.4603 29.3504 12.1561 28.6496 12.1561C27.9829 12.1561 27.4017 12.4434 27.4017 13.0518Z" fill="var(--text-fill)"/>
</svg>
